<svg width="216" height="80" viewBox="0 0 216 80" fill="none" xmlns="http://www.w3.org/2000/svg">
<path d="M110.28 51.3417V33.0596C110.28 30.7284 109.912 29.1333 109.114 28.3357C108.316 27.5382 107.028 27.1088 105.126 27.1088C101.016 27.1088 98.93 29.44 98.93 34.0412V51.3417H90.9546V21.1579H98.5619V25.575C99.4821 23.8573 100.77 22.5689 102.304 21.6487C103.838 20.7898 105.862 20.3604 108.316 20.3604C109.727 20.3604 111.077 20.6057 112.304 20.9738C113.531 21.4033 114.574 22.0781 115.494 22.937C116.353 23.7959 117.028 24.8388 117.58 26.0658C118.071 27.3542 118.316 28.7652 118.316 30.4216V51.3417H110.28Z" fill="white"/>
<path d="M126.353 51.3351V26.7954H121.874V21.1513H126.353C126.353 13.7894 130.647 10.1084 139.175 10.1084V16.5501C138.132 16.5501 137.334 16.6114 136.721 16.7341C136.046 16.9182 135.555 17.1636 135.187 17.5317C134.819 17.8998 134.573 18.3905 134.451 18.9427C134.267 19.5562 134.205 20.2924 134.205 21.1513H139.359V26.7954H134.205V51.3351H126.353Z" fill="white"/>
<path d="M161.504 31.4656H168.927V40.0545C168.927 41.6496 168.682 43.1833 168.252 44.5943C167.761 46.0667 167.025 47.3551 166.044 48.4593C165.001 49.625 163.712 50.4839 162.24 51.1587C160.706 51.8335 158.866 52.1403 156.718 52.1403C154.51 52.1403 152.608 51.8335 151.074 51.1587C149.541 50.4839 148.252 49.625 147.271 48.5207C146.228 47.4164 145.491 46.1281 145.062 44.6557C144.633 43.1833 144.387 41.6496 144.387 39.9932V12.9995H152.24V21.159H168.927V26.8031H152.24V39.1956C152.24 41.0974 152.608 42.6312 153.344 43.6128C154.019 44.6557 155.185 45.2078 156.841 45.2078C158.436 45.2078 159.602 44.717 160.399 43.6741C161.136 42.6312 161.504 41.2201 161.504 39.3183V31.4656Z" fill="white"/>
<path d="M175.43 51.3351V21.1513H183.405V51.3351H175.43ZM175.43 17.5317V10.1084H183.405V17.5317H175.43Z" fill="white"/>
<path d="M189.064 51.3435V45.2086L204.463 27.4786H190.107V21.1597H214.647V27.6013L199.248 44.8405H215.076V51.3435H189.064Z" fill="white"/>
<path d="M98.5686 60.3768C98.4791 60.8498 98.2874 61.2972 97.9934 61.7191C97.6993 62.1409 97.2902 62.4733 96.7661 62.729C96.242 62.9847 95.6028 63.1125 94.8741 63.1125H93.3784L92.7776 66.5386H90.9751L92.5603 57.6155H95.8457C96.7533 57.6155 97.4437 57.82 97.9167 58.2163C98.3896 58.6254 98.6198 59.1623 98.6198 59.8399C98.6198 60.0316 98.607 60.2106 98.5686 60.3768ZM95.0531 61.7063C95.5389 61.7063 95.9224 61.5912 96.2036 61.3483C96.4849 61.1054 96.6638 60.7859 96.7405 60.3768C96.7533 60.3001 96.7661 60.185 96.7661 60.0444C96.7661 59.3669 96.3443 59.0345 95.5133 59.0345H94.1071L93.6341 61.7063H95.0531Z" fill="white" fill-opacity="0.75"/>
<path d="M102.552 66.6502C101.952 66.6502 101.415 66.5224 100.954 66.2795C100.481 66.0366 100.124 65.6786 99.8679 65.2312C99.6122 64.7838 99.4844 64.2596 99.4844 63.6716C99.4844 62.8662 99.6761 62.1375 100.06 61.4728C100.43 60.8208 100.954 60.2967 101.619 59.9132C102.271 59.5296 103.013 59.3379 103.818 59.3379C104.419 59.3379 104.968 59.4657 105.441 59.7086C105.914 59.9643 106.272 60.3222 106.541 60.7697C106.797 61.2171 106.924 61.7412 106.924 62.3293C106.924 63.1347 106.733 63.8761 106.349 64.5281C105.966 65.1801 105.441 65.7042 104.777 66.0749C104.099 66.4584 103.358 66.6502 102.552 66.6502ZM102.795 65.1162C103.217 65.1162 103.613 64.9883 103.959 64.7454C104.304 64.5025 104.585 64.1702 104.777 63.7611C104.968 63.352 105.071 62.9173 105.071 62.4699C105.071 61.9586 104.93 61.5623 104.649 61.281C104.355 61.0126 103.997 60.8719 103.562 60.8719C103.128 60.8719 102.744 60.9998 102.412 61.2427C102.067 61.4856 101.811 61.8179 101.619 62.227C101.427 62.6489 101.338 63.0835 101.338 63.5437C101.338 64.0423 101.479 64.4386 101.747 64.7071C102.016 64.9755 102.361 65.1162 102.795 65.1162Z" fill="white" fill-opacity="0.75"/>
<path d="M119.26 59.4404L115.936 66.5226H113.993L113.584 61.6009L111.411 66.5226H109.468L108.649 59.4404H110.452L110.759 64.8351L113.073 59.4404H114.965L115.348 64.8223L117.534 59.4404H119.26Z" fill="white" fill-opacity="0.75"/>
<path d="M123.991 59.3379C124.899 59.3379 125.614 59.5808 126.139 60.0793C126.663 60.5779 126.931 61.2555 126.931 62.0992C126.931 62.3676 126.906 62.6105 126.867 62.8279C126.816 63.0835 126.765 63.3009 126.701 63.4926H121.524C121.511 63.5565 121.511 63.6332 121.511 63.7483C121.511 64.1957 121.639 64.5409 121.907 64.7838C122.163 65.0395 122.508 65.1673 122.93 65.1673C123.288 65.1673 123.595 65.0906 123.863 64.9244C124.119 64.771 124.323 64.5665 124.49 64.3108H126.42C126.1 64.9883 125.614 65.5508 124.962 65.9854C124.298 66.4329 123.544 66.6502 122.713 66.6502C121.805 66.6502 121.089 66.3945 120.539 65.8832C119.99 65.3718 119.721 64.6815 119.721 63.7994C119.721 63.5437 119.747 63.2753 119.798 62.994C119.926 62.2654 120.194 61.6134 120.59 61.0637C120.987 60.514 121.473 60.0793 122.061 59.7853C122.649 59.4913 123.288 59.3379 123.991 59.3379ZM125.09 62.406C125.103 62.2654 125.116 62.1759 125.116 62.112C125.116 61.7029 124.988 61.3833 124.72 61.1532C124.451 60.9231 124.106 60.808 123.684 60.808C123.237 60.808 122.828 60.9486 122.47 61.2299C122.112 61.5239 121.856 61.9074 121.715 62.406H125.09Z" fill="white" fill-opacity="0.75"/>
<path d="M130.986 60.6929C131.293 60.2711 131.651 59.9387 132.06 59.6958C132.469 59.4529 132.917 59.3379 133.39 59.3379L133.057 61.2171H132.584C132.06 61.2171 131.638 61.3321 131.319 61.5622C130.999 61.7923 130.756 62.1886 130.616 62.7383L129.951 66.5223H128.148L129.401 59.4402H131.204L130.986 60.6929Z" fill="white" fill-opacity="0.75"/>
<path d="M138.323 59.3379C139.231 59.3379 139.946 59.5808 140.471 60.0793C140.995 60.5779 141.263 61.2555 141.263 62.0992C141.263 62.3676 141.238 62.6105 141.199 62.8279C141.148 63.0835 141.097 63.3009 141.033 63.4926H135.856C135.843 63.5565 135.843 63.6332 135.843 63.7483C135.843 64.1957 135.971 64.5409 136.239 64.7838C136.495 65.0395 136.84 65.1673 137.262 65.1673C137.62 65.1673 137.927 65.0906 138.195 64.9244C138.451 64.771 138.655 64.5665 138.822 64.3108H140.752C140.432 64.9883 139.946 65.5508 139.295 65.9854C138.63 66.4329 137.876 66.6502 137.045 66.6502C136.137 66.6502 135.421 66.3945 134.871 65.8832C134.322 65.3718 134.053 64.6815 134.053 63.7994C134.053 63.5437 134.079 63.2753 134.13 62.994C134.258 62.2654 134.526 61.6134 134.923 61.0637C135.319 60.514 135.805 60.0793 136.393 59.7853C136.981 59.4913 137.62 59.3379 138.323 59.3379ZM139.422 62.406C139.435 62.2654 139.448 62.1759 139.448 62.112C139.448 61.7029 139.32 61.3833 139.052 61.1532C138.783 60.9231 138.438 60.808 138.016 60.808C137.569 60.808 137.16 60.9486 136.802 61.2299C136.444 61.5239 136.188 61.9074 136.047 62.406H139.422Z" fill="white" fill-opacity="0.75"/>
<path d="M142.639 62.9553C142.767 62.2394 143.023 61.6002 143.406 61.0505C143.777 60.5008 144.25 60.0662 144.8 59.7721C145.349 59.4781 145.925 59.3247 146.525 59.3247C146.986 59.3247 147.407 59.427 147.791 59.6187C148.175 59.8233 148.456 60.0917 148.648 60.4241L149.248 57.062H151.051L149.376 66.5219H147.574L147.765 65.4737C147.484 65.8188 147.126 66.1001 146.692 66.3174C146.244 66.5347 145.758 66.637 145.234 66.637C144.71 66.637 144.25 66.5219 143.854 66.279C143.445 66.0489 143.125 65.7166 142.908 65.2819C142.678 64.86 142.562 64.3615 142.562 63.7862C142.562 63.5178 142.588 63.2493 142.639 62.9553ZM148.2 62.9808C148.238 62.7635 148.251 62.5973 148.251 62.4951C148.251 61.9965 148.111 61.6002 147.817 61.319C147.523 61.0377 147.152 60.8971 146.704 60.8971C146.372 60.8971 146.052 60.9738 145.746 61.14C145.426 61.3062 145.158 61.5363 144.927 61.8431C144.697 62.1627 144.544 62.5334 144.467 62.9553C144.442 63.1215 144.429 63.2749 144.429 63.4155C144.429 63.9268 144.57 64.3359 144.864 64.6172C145.158 64.9112 145.516 65.0646 145.963 65.0646C146.295 65.0646 146.615 64.9751 146.935 64.8089C147.254 64.6427 147.523 64.4126 147.753 64.093C147.97 63.7734 148.123 63.4027 148.2 62.9808Z" fill="white" fill-opacity="0.75"/>
<path d="M158.725 60.4753C159.006 60.1301 159.364 59.8616 159.812 59.6443C160.259 59.427 160.732 59.3247 161.256 59.3247C161.78 59.3247 162.253 59.4398 162.662 59.6571C163.059 59.8872 163.378 60.2196 163.596 60.6414C163.813 61.0633 163.928 61.5619 163.928 62.1371C163.928 62.4056 163.902 62.674 163.851 62.9553C163.723 63.684 163.468 64.3231 163.084 64.8728C162.701 65.4353 162.24 65.87 161.691 66.1768C161.141 66.4836 160.579 66.637 159.978 66.637C159.454 66.637 159.006 66.5347 158.635 66.3174C158.265 66.1128 157.996 65.8444 157.83 65.512L157.651 66.5219H155.849L157.523 57.062H159.326L158.725 60.4753ZM162.023 62.9553C162.049 62.7891 162.062 62.6357 162.062 62.4951C162.062 61.9965 161.921 61.6002 161.627 61.319C161.333 61.0377 160.962 60.8971 160.515 60.8971C160.195 60.8971 159.875 60.9738 159.556 61.14C159.236 61.3062 158.968 61.5491 158.738 61.8687C158.508 62.1883 158.354 62.559 158.278 62.9808C158.239 63.1982 158.226 63.3644 158.226 63.4666C158.226 63.9652 158.38 64.3615 158.674 64.6427C158.968 64.924 159.326 65.0646 159.773 65.0646C160.106 65.0646 160.425 64.9751 160.745 64.8089C161.064 64.6427 161.333 64.3998 161.563 64.0802C161.793 63.7607 161.946 63.3899 162.023 62.9553Z" fill="white" fill-opacity="0.75"/>
<path d="M167.586 59.4404L168.532 64.3877L171.28 59.4404H173.185L166.959 69.872H165.055L167.202 66.3436L165.579 59.4404H167.586Z" fill="white" fill-opacity="0.75"/>
<path d="M186.26 57.6155L182.22 63.4321L181.67 66.5386H179.868L180.43 63.4321L178.423 57.6155H180.443L181.632 61.6679L184.24 57.6155H186.26Z" fill="white" fill-opacity="0.75"/>
<path d="M194.29 59.4404L193.038 66.5225H191.248L191.401 65.6277C191.133 65.9345 190.788 66.1774 190.391 66.3436C189.995 66.5225 189.573 66.612 189.126 66.612C188.397 66.612 187.809 66.4075 187.387 66.0112C186.965 65.6149 186.748 65.0524 186.748 64.3238C186.748 64.0553 186.774 63.8124 186.812 63.5951L187.541 59.4404H189.33L188.64 63.3394C188.614 63.4928 188.602 63.6462 188.602 63.7869C188.602 64.2087 188.717 64.5283 188.947 64.7456C189.177 64.9757 189.497 65.0908 189.918 65.0908C190.404 65.0908 190.813 64.9374 191.158 64.6306C191.504 64.3365 191.721 63.9019 191.81 63.3394L192.501 59.4404H194.29Z" fill="white" fill-opacity="0.75"/>
<path d="M195.621 62.9553C195.748 62.2394 196.004 61.6002 196.388 61.0505C196.758 60.5008 197.231 60.0662 197.781 59.7721C198.331 59.4781 198.906 59.3247 199.507 59.3247C199.967 59.3247 200.389 59.427 200.772 59.6187C201.156 59.8233 201.437 60.0917 201.629 60.4241L202.23 57.062H204.032L202.358 66.5219H200.555L200.747 65.4737C200.466 65.8188 200.108 66.1001 199.673 66.3174C199.226 66.5347 198.74 66.637 198.216 66.637C197.692 66.637 197.231 66.5219 196.835 66.279C196.426 66.0489 196.106 65.7166 195.889 65.2819C195.659 64.86 195.544 64.3615 195.544 63.7862C195.544 63.5178 195.57 63.2493 195.621 62.9553ZM201.182 62.9808C201.22 62.7635 201.233 62.5973 201.233 62.4951C201.233 61.9965 201.092 61.6002 200.798 61.319C200.504 61.0377 200.133 60.8971 199.686 60.8971C199.353 60.8971 199.034 60.9738 198.727 61.14C198.407 61.3062 198.139 61.5363 197.909 61.8431C197.679 62.1627 197.525 62.5334 197.449 62.9553C197.423 63.1215 197.41 63.2749 197.41 63.4155C197.41 63.9268 197.551 64.3359 197.845 64.6172C198.139 64.9112 198.497 65.0646 198.944 65.0646C199.277 65.0646 199.596 64.9751 199.916 64.8089C200.236 64.6427 200.504 64.4126 200.734 64.093C200.951 63.7734 201.105 63.4027 201.182 62.9808Z" fill="white" fill-opacity="0.75"/>
<path d="M207.064 58.6048C206.783 58.6048 206.553 58.5281 206.386 58.3619C206.22 58.1958 206.131 57.9912 206.131 57.7483C206.131 57.4032 206.258 57.1091 206.527 56.8662C206.783 56.6234 207.089 56.5083 207.435 56.5083C207.703 56.5083 207.933 56.585 208.099 56.7512C208.266 56.9174 208.355 57.1219 208.355 57.3648C208.355 57.71 208.227 57.9912 207.971 58.2341C207.716 58.477 207.409 58.6048 207.064 58.6048ZM207.805 59.4486L206.553 66.5307H204.75L206.003 59.4486H207.805Z" fill="white" fill-opacity="0.75"/>
<path d="M210.865 65.0525H214.009L213.741 66.5226H208.563L208.819 65.078L212.641 60.9105H209.561L209.816 59.4404H214.955L214.712 60.885L210.865 65.0525Z" fill="white" fill-opacity="0.75"/>
<path d="M40 80C62.0914 80 79.9999 62.0915 79.9999 40.0001C79.9999 17.9087 62.0914 0 40 0C17.9086 0 0 17.9087 0 40.0001C0 62.0915 17.9086 80 40 80Z" fill="url(#paint0_linear)"/>
<g filter="url(#filter0_d)">
<path d="M22.2456 62.5343C24.9514 62.5343 27.1449 60.3407 27.1449 57.6349C27.1449 54.929 24.9514 52.7356 22.2456 52.7356C19.5397 52.7356 17.3462 54.929 17.3462 57.6349C17.3462 60.3407 19.5397 62.5343 22.2456 62.5343Z" fill="#10137B"/>
<path d="M57.7783 27.0219C60.4841 27.0219 62.6776 24.8283 62.6776 22.1224C62.6776 19.4166 60.4841 17.2231 57.7783 17.2231C55.0725 17.2231 52.8789 19.4166 52.8789 22.1224C52.8789 24.8283 55.0725 27.0219 57.7783 27.0219Z" fill="#10137B"/>
<path fill-rule="evenodd" clip-rule="evenodd" d="M56.1597 24.2559C56.1597 24.2559 56.5134 26.5865 56.8983 30.0965C56.9883 30.8816 57.0814 31.7135 57.1341 32.601C57.2862 35.1458 57.3234 38.0475 57.3482 40.9492C57.3638 42.352 57.3421 43.7578 57.3204 45.1202C57.2924 46.5726 57.2924 47.9817 57.2055 49.2944C57.1465 50.1851 57.0349 51.0106 56.9417 51.7988C56.5197 55.3088 56.1597 57.6394 56.1597 57.6394H59.3935C59.3935 57.6394 59.0303 55.3088 58.6114 51.7988C58.5152 51.0106 58.4035 50.1851 58.3445 49.2944C58.2576 47.9817 58.2576 46.5726 58.2328 45.1202C58.2079 43.7578 58.1893 42.352 58.2017 40.9492C58.2296 38.0475 58.2638 35.1458 58.4159 32.601C58.4687 31.7135 58.5649 30.8816 58.6518 30.0965C59.0397 26.5865 59.3935 24.2559 59.3935 24.2559H56.1597Z" fill="#10137B"/>
<path d="M57.7597 62.5343C55.0539 62.5343 52.8604 60.3407 52.8604 57.6349C52.8604 54.929 55.0539 52.7356 57.7597 52.7356C60.4656 52.7356 62.6592 54.929 62.6592 57.6349C62.6592 60.3407 60.4656 62.5343 57.7597 62.5343Z" fill="#10137B"/>
<path d="M22.2475 27.0219C19.5417 27.0219 17.3482 24.8283 17.3482 22.1224C17.3482 19.4166 19.5417 17.2231 22.2475 17.2231C24.9534 17.2231 27.147 19.4166 27.147 22.1224C27.147 24.8283 24.9534 27.0219 22.2475 27.0219Z" fill="#10137B"/>
<path fill-rule="evenodd" clip-rule="evenodd" d="M20.627 24.2559C20.627 24.2559 20.9807 26.5865 21.3655 30.0965C21.4555 30.8816 21.5486 31.7135 21.6014 32.601C21.7535 35.1458 21.7907 38.0475 21.8155 40.9492C21.831 42.352 21.8094 43.7578 21.7876 45.1202C21.7597 46.5726 21.7597 47.9817 21.6728 49.2944C21.6138 50.1851 21.5021 51.0106 21.409 51.7988C20.987 55.3088 20.627 57.6394 20.627 57.6394H23.8607C23.8607 57.6394 23.4976 55.3088 23.0786 51.7988C22.9824 51.0106 22.8707 50.1851 22.8118 49.2944C22.7249 47.9817 22.7248 46.5726 22.7 45.1202C22.6752 43.7578 22.6565 42.352 22.669 40.9492C22.6969 38.0475 22.7311 35.1458 22.8832 32.601C22.9359 31.7135 23.0321 30.8816 23.119 30.0965C23.5069 26.5865 23.8607 24.2559 23.8607 24.2559H20.627Z" fill="#10137B"/>
<path fill-rule="evenodd" clip-rule="evenodd" d="M21.4263 25.4453C21.4263 25.4453 24.1459 27.3658 28.0927 30.324C28.9805 30.989 29.9271 31.6934 30.8967 32.4758C33.69 34.7296 36.7761 37.3937 39.8571 40.0699C41.3489 41.3611 42.8189 42.6825 44.2429 43.9637C45.7578 45.333 47.2458 46.6414 48.5734 47.9246C49.4676 48.7894 50.2737 49.6469 51.04 50.4447C54.4441 53.9959 56.6798 56.4452 56.6798 56.4452L58.8629 54.0597C58.8629 54.0597 56.137 52.146 52.1672 49.213C51.2731 48.5549 50.3162 47.8621 49.3423 47.0843C47.8974 45.9294 46.4094 44.621 44.8589 43.2906C43.4034 42.0438 41.9062 40.7521 40.4333 39.4403C37.3879 36.7252 34.35 34.0084 31.7621 31.5302C30.8637 30.6699 30.0469 29.8237 29.2764 29.0305C25.8493 25.5045 23.6094 23.0597 23.6094 23.0597L21.4263 25.4453Z" fill="#10137B"/>
</g>
<defs>
<filter id="filter0_d" x="13.3462" y="17.2231" width="53.3314" height="53.3111" filterUnits="userSpaceOnUse" color-interpolation-filters="sRGB">
<feFlood flood-opacity="0" result="BackgroundImageFix"/>
<feColorMatrix in="SourceAlpha" type="matrix" values="0 0 0 0 0 0 0 0 0 0 0 0 0 0 0 0 0 0 127 0" result="hardAlpha"/>
<feOffset dy="4"/>
<feGaussianBlur stdDeviation="2"/>
<feComposite in2="hardAlpha" operator="out"/>
<feColorMatrix type="matrix" values="0 0 0 0 0 0 0 0 0 0 0 0 0 0 0 0 0 0 0.25 0"/>
<feBlend mode="normal" in2="BackgroundImageFix" result="effect1_dropShadow"/>
<feBlend mode="normal" in="SourceGraphic" in2="effect1_dropShadow" result="shape"/>
</filter>
<linearGradient id="paint0_linear" x1="6.97536e-07" y1="40" x2="68.0517" y2="68.5148" gradientUnits="userSpaceOnUse">
<stop stop-color="#12F282"/>
<stop offset="1" stop-color="#2CF2B8"/>
</linearGradient>
</defs>
</svg>
